PathFileType	4	(X/Y/Z)	/Users/itak/Documents/Research/Walk-IL/dataset/trc/00214_00009.trc
DataRate	CameraRate	NumFrames	NumMarkers	Units	OrigDataRate	OrigDataStartFrame	OrigNumFrames
100.000000	100.000000	4	54	mm	100.000000	189	505
Frame#	Time	RPSI			LPSI			L3			STRN			T10			C7			CLAV			RBAK			LBAK			LSHO			LUPA			LAEL			LAOL			LWTS			LWPS			LFRA			LIFD			LHPS			LHTS			RSHO			RUPA			RAEL			RAOL			RWPS			RFRA			RIFD			RHPS			RBHD			LFHD			RFHD			LBHD			LHIP			RHIP			RASI			LASI			LKNE			LTHI			LANK			LTIP			LTOE			LMT1			LMT5			LHEE			RKNE			RTHI			RANK			RTIP			RTOE			RMT5			RHEE			RWTS			RHTS			RMT1			*53			
		X1	Y1	Z1	X2	Y2	Z2	X3	Y3	Z3	X4	Y4	Z4	X5	Y5	Z5	X6	Y6	Z6	X7	Y7	Z7	X8	Y8	Z8	X9	Y9	Z9	X10	Y10	Z10	X11	Y11	Z11	X12	Y12	Z12	X13	Y13	Z13	X14	Y14	Z14	X15	Y15	Z15	X16	Y16	Z16	X17	Y17	Z17	X18	Y18	Z18	X19	Y19	Z19	X20	Y20	Z20	X21	Y21	Z21	X22	Y22	Z22	X23	Y23	Z23	X24	Y24	Z24	X25	Y25	Z25	X26	Y26	Z26	X27	Y27	Z27	X28	Y28	Z28	X29	Y29	Z29	X30	Y30	Z30	X31	Y31	Z31	X32	Y32	Z32	X33	Y33	Z33	X34	Y34	Z34	X35	Y35	Z35	X36	Y36	Z36	X37	Y37	Z37	X38	Y38	Z38	X39	Y39	Z39	X40	Y40	Z40	X41	Y41	Z41	X42	Y42	Z42	X43	Y43	Z43	X44	Y44	Z44	X45	Y45	Z45	X46	Y46	Z46	X47	Y47	Z47	X48	Y48	Z48	X49	Y49	Z49	X50	Y50	Z50	X51	Y51	Z51	X52	Y52	Z52	X53	Y53	Z53	X54	Y54	Z54	

190	1.89	-1287.643310546875	1021.702819824219	-155.1751861572266	-1286.2724609375	1029.2314453125	-274.3485717773438	-1285.313720703125	1117.04150390625	-224.6107788085938	-1024.725463867188	1277.296752929688	-239.6473083496094	-1281.407470703125	1243.452270507812	-213.1020202636719	-1195.554931640625	1497.210327148438	-226.0459747314453	-1041.429931640625	1395.97998046875	-238.6020660400391	-1278.972412109375	1369.564697265625	-141.1416015625	-1231.215698242188	1460.333251953125	-332.1399536132812	-1148.909423828125	1450.828735351562	-397.2552490234375	-1205.600219726562	1336.97509765625	-466.153564453125	-1235.11083984375	1130.6513671875	-493.5564575195312	-1296.56396484375	1124.683471679688	-431.4139709472656	-1180.12890625	881.3192138671875	-462.1656494140625	-1226.270629882812	874.9215698242188	-533.1371459960938	-1236.736206054688	1022.740905761719	-512.8445434570312	-1219.84326171875	690.0855102539062	-473.3109741210938	-1227.578491210938	784.5765380859375	-533.8927612304688	-1173.768676757812	776.4465942382812	-492.3421020507812	-1124.010986328125	1452.321655273438	-63.71978378295898	-1140.884643554688	1391.341674804688	7.439441204071045	-1179.299072265625	1114.533203125	58.22660827636719	-1232.589477539062	1110.904052734375	-21.67086029052734	-1103.762329101562	879.7783203125	55.54653167724609	-1155.761474609375	1042.70263671875	63.89098358154297	-1066.1416015625	710.18701171875	-36.2479362487793	-1065.577026367188	772.264892578125	44.2835807800293	-1143.40380859375	1646.127807617188	-195.7293243408203	-935.9175415039062	1673.784912109375	-285.7084350585938	-939.6195678710938	1676.6259765625	-185.8609313964844	-1093.465454101562	1645.603149414062	-326.9224548339844	-1171.837036132812	975.0245361328125	-407.746337890625	-1199.701904296875	975.5623779296875	-41.22138977050781	-1099.237060546875	1019.492736816406	-72.55214691162109	-1077.740478515625	1012.968444824219	-350.7597961425781	-992.462646484375	517.2149658203125	-335.2198791503906	-1045.211059570312	649.8624877929688	-376.5676879882812	-1067.310424804688	38.36848449707031	-307.6543579101562	-1028.138305664062	283.7975769042969	-330.5055541992188	-855.584228515625	45.88272094726562	-245.7639465332031	-923.9830932617188	40.15344619750977	-203.997802734375	-939.7950439453125	39.62109756469727	-320.4025268554688	-1129.104125976562	46.19924926757812	-257.3154602050781	-1246.708251953125	491.0536804199219	-64.84109497070312	-1170.10595703125	749.69482421875	-37.69302749633789	-1608.280151367188	135.4989013671875	-108.1332855224609	-1305.317749023438	384.4228515625	-81.26418304443359	-1436.585815429688	43.93731689453125	-138.9569091796875	-1530.859497070312	61.07521057128906	-79.11879730224609	-1643.164794921875	185.6562957763672	-167.8982086181641	-1065.818603515625	895.2033081054688	-19.81600952148438	-1024.355224609375	773.8497314453125	-15.20594692230225	-1472.480224609375	65.16252899169922	-184.4550933837891	nan	nan	nan	
191	1.9	-1279.321655273438	1022.811645507812	-156.2074890136719	-1277.571044921875	1030.8056640625	-275.3194580078125	-1276.595336914062	1118.267333984375	-225.9314727783203	-1016.181823730469	1279.162109375	-240.0104370117188	-1272.769287109375	1244.753173828125	-214.9275054931641	-1187.542846679688	1498.6630859375	-227.5650482177734	-1033.141845703125	1397.775146484375	-239.1188812255859	-1270.961669921875	1370.916748046875	-143.0613861083984	-1222.52001953125	1461.628173828125	-333.8473510742188	-1139.773559570312	1452.267456054688	-398.3402709960938	-1195.128540039062	1338.220581054688	-467.8792114257812	-1222.071166992188	1131.449462890625	-495.8543090820312	-1284.193969726562	1124.656616210938	-434.5006408691406	-1162.478759765625	883.38330078125	-463.3606262207031	-1207.767456054688	875.8444213867188	-534.8312377929688	-1221.474243164062	1023.4599609375	-514.9918823242188	-1197.7841796875	691.3538818359375	-474.64208984375	-1206.955078125	785.4979858398438	-535.5144653320312	-1153.457153320312	778.70703125	-493.3925476074219	-1116.69970703125	1454.269653320312	-64.76833343505859	-1134.066284179688	1393.43505859375	6.382959365844727	-1173.7158203125	1116.939697265625	57.34196853637695	-1226.394897460938	1113.303955078125	-22.91307640075684	-1099.458374023438	881.808837890625	56.41010665893555	-1150.40234375	1045.063842773438	63.57424545288086	-1062.845825195312	711.4024658203125	-34.31300354003906	-1062.169555664062	773.9102172851562	45.95564270019531	-1135.990356445312	1647.369750976562	-196.4678497314453	-928.83544921875	1676.417602539062	-286.6300048828125	-932.393310546875	1679.043579101562	-186.7423553466797	-1086.234252929688	1647.3818359375	-327.6890258789062	-1163.8056640625	976.33837890625	-408.7157592773438	-1191.258422851562	976.5055541992188	-42.45438003540039	-1090.93701171875	1020.882690429688	-73.69700622558594	-1068.824340820312	1014.48876953125	-352.1773071289062	-989.4136962890625	516.623779296875	-336.039794921875	-1040.500732421875	649.9561157226562	-377.36865234375	-1067.341186523438	38.3174934387207	-307.6878967285156	-1026.849731445312	283.4668884277344	-330.9266052246094	-855.6904907226562	45.89362335205078	-245.7158355712891	-923.9764404296875	40.14941787719727	-203.94921875	-939.8253173828125	39.61574935913086	-320.3908081054688	-1129.212036132812	46.18243789672852	-257.3787231445312	-1228.00146484375	489.846435546875	-63.00790023803711	-1158.289306640625	750.6851196289062	-38.3867073059082	-1598.60498046875	146.1449584960938	-104.8909378051758	-1287.014770507812	383.8819580078125	-79.54361724853516	-1432.077026367188	43.86454772949219	-137.8190765380859	-1524.5517578125	68.01296997070312	-77.16688537597656	-1631.719970703125	197.6082611083984	-163.9660186767578	-1060.93408203125	896.5352783203125	-18.74674224853516	-1020.443969726562	774.84814453125	-13.34555721282959	-1467.593994140625	68.67131042480469	-183.1980438232422	nan	nan	nan	
192	1.91	-1271.210205078125	1023.844299316406	-157.1101989746094	-1269.086181640625	1032.328369140625	-276.1666564941406	-1267.993530273438	1119.468872070312	-227.1428375244141	-1007.788818359375	1280.879150390625	-240.2596588134766	-1264.201171875	1246.0380859375	-216.7024841308594	-1179.557006835938	1500.08203125	-229.0943603515625	-1024.92529296875	1399.448486328125	-239.5548553466797	-1263.033569335938	1372.261108398438	-144.9934539794922	-1213.789916992188	1462.89892578125	-335.5865783691406	-1130.551635742188	1453.623901367188	-399.3885192871094	-1184.526611328125	1339.43408203125	-469.6250610351562	-1208.907592773438	1132.262573242188	-498.2290954589844	-1271.752319335938	1124.626831054688	-437.7781982421875	-1144.650268554688	885.6107177734375	-464.4045104980469	-1188.92724609375	876.8815307617188	-536.4431762695312	-1205.989990234375	1024.221069335938	-517.1654663085938	-1175.3330078125	692.8087158203125	-475.7928771972656	-1185.92041015625	786.5845947265625	-536.9979248046875	-1132.837524414062	781.1849975585938	-494.21435546875	-1109.4853515625	1456.1591796875	-65.78231811523438	-1127.389892578125	1395.485107421875	5.366141319274902	-1168.357666015625	1119.297973632812	56.49420547485352	-1220.339965820312	1115.649658203125	-24.1425952911377	-1095.2001953125	883.8638305664062	57.21323013305664	-1145.183349609375	1047.404296875	63.25003433227539	-1059.401611328125	712.6714477539062	-32.46707153320312	-1058.744384765625	775.6356201171875	47.56261825561523	-1128.613647460938	1648.48828125	-197.1590270996094	-921.8036499023438	1679.010131835938	-287.4789123535156	-925.235595703125	1681.414306640625	-187.5497589111328	-1079.033569335938	1649.0712890625	-328.394287109375	-1155.990112304688	977.629638671875	-409.6691589355469	-1182.976684570312	977.3212280273438	-43.61079025268555	-1082.802734375	1022.159057617188	-74.77609252929688	-1060.173461914062	1015.9345703125	-353.5730590820312	-986.64453125	516.0704956054688	-336.7931213378906	-1035.998901367188	650.0941772460938	-378.103515625	-1067.377075195312	38.26791000366211	-307.7271728515625	-1025.719116210938	283.1599426269531	-331.3525085449219	-855.7987670898438	45.90441131591797	-245.6690216064453	-923.9968872070312	40.14361190795898	-203.8994445800781	-939.8562622070312	39.60382843017578	-320.3778686523438	-1129.334228515625	46.16781997680664	-257.4507446289062	-1208.75830078125	488.7245788574219	-61.4003791809082	-1146.444458007812	751.6421508789062	-39.01907348632812	-1587.673095703125	156.8534545898438	-101.7403564453125	-1268.134887695312	383.4172058105469	-78.09230804443359	-1425.989135742188	44.19231414794922	-136.4638214111328	-1516.768676757812	75.57472229003906	-75.16399383544922	-1619.268432617188	209.3179168701172	-160.2105255126953	-1056.077392578125	897.946533203125	-17.67376708984375	-1016.574768066406	775.9395751953125	-11.48009777069092	-1461.240600585938	72.79183959960938	-181.7607421875	nan	nan	nan	
193	1.92	-1263.291381835938	1024.789794921875	-157.8854827880859	-1260.81884765625	1033.776733398438	-276.8959350585938	-1259.526977539062	1120.65283203125	-228.2339782714844	-999.5419921875	1282.443969726562	-240.3987731933594	-1255.704345703125	1247.3037109375	-218.4056396484375	-1171.60546875	1501.461181640625	-230.6251983642578	-1016.78466796875	1400.997192382812	-239.9145812988281	-1255.192138671875	1373.594360351562	-146.9212341308594	-1205.04052734375	1464.139770507812	-337.3445129394531	-1121.267456054688	1454.889404296875	-400.3938903808594	-1173.802368164062	1340.602783203125	-471.3716430664062	-1195.592041015625	1133.075317382812	-500.6595153808594	-1259.223999023438	1124.573852539062	-441.2348937988281	-1126.705444335938	887.9720458984375	-465.294189453125	-1169.774047851562	878.0355834960938	-537.961669921875	-1190.284912109375	1025.017456054688	-519.350341796875	-1152.597045898438	694.452880859375	-476.7576904296875	-1164.519653320312	787.8452758789062	-538.335205078125	-1111.959594726562	783.8729858398438	-494.7992553710938	-1102.35888671875	1457.977905273438	-66.75907897949219	-1120.84619140625	1397.481567382812	4.397810935974121	-1163.2109375	1121.589233398438	55.68051147460938	-1214.409423828125	1117.925903320312	-25.36380386352539	-1091.01025390625	885.9124145507812	57.9595947265625	-1140.143676757812	1049.697143554688	62.92311096191406	-1055.739379882812	713.9705810546875	-30.70240783691406	-1055.291870117188	777.4173583984375	49.10549163818359	-1121.2626953125	1649.485595703125	-197.7993316650391	-914.799560546875	1681.534790039062	-288.24951171875	-918.131103515625	1683.715454101562	-188.2837066650391	-1071.844604492188	1650.661376953125	-329.04150390625	-1148.355834960938	978.8927001953125	-410.6175537109375	-1174.829467773438	978.0206298828125	-44.693115234375	-1074.821899414062	1023.326782226562	-75.78585052490234	-1051.836303710938	1017.274597167969	-354.9017028808594	-984.1139526367188	515.5486450195312	-337.478515625	-1031.682250976562	650.248046875	-378.7702331542969	-1067.416259765625	38.22172546386719	-307.7694396972656	-1024.710571289062	282.8734130859375	-331.7746887207031	-855.904541015625	45.90975189208984	-245.6166229248047	-924.0492553710938	40.13031387329102	-203.8404235839844	-939.885498046875	39.5882453918457	-320.3616333007812	-1129.471313476562	46.15710830688477	-257.5313415527344	-1189.03515625	487.7859497070312	-60.06201553344727	-1134.55029296875	752.5927124023438	-39.60143661499023	-1575.446411132812	167.2670593261719	-98.76609802246094	-1248.809448242188	383.1135864257812	-76.90863800048828	-1418.150756835938	45.09861755371094	-134.9311218261719	-1507.32421875	83.43000030517578	-73.14823150634766	-1605.807006835938	220.4756927490234	-156.7535705566406	-1051.246215820312	899.42236328125	-16.58831024169922	-1012.719604492188	777.1162719726562	-9.595250129699707	-1453.189331054688	77.40571594238281	-180.1519927978516	nan	nan	nan	
